<?xml version="1.0" encoding="UTF-8"?>
<svg version="1.1" xmlns="http://www.w3.org/2000/svg" width="48" height="48">
<path d="M0 0 C15.84 0 31.68 0 48 0 C48 15.84 48 31.68 48 48 C32.16 48 16.32 48 0 48 C0 32.16 0 16.32 0 0 Z " fill="#249DED" transform="translate(0,0)"/>
<path d="M0 0 C0.66 0 1.32 0 2 0 C2.10541952 5.06672565 1.72702304 9.9318481 1 14.9375 C0.85691406 15.96327148 0.85691406 15.96327148 0.7109375 17.00976562 C0.47820863 18.67377707 0.23971452 20.33698053 0 22 C-1.65 21.67 -3.3 21.34 -5 21 C-5 18.36 -5 15.72 -5 13 C-6.98 13 -8.96 13 -11 13 C-11 15.97 -11 18.94 -11 22 C-12.65 22 -14.3 22 -16 22 C-15.505 17.545 -15.505 17.545 -15 13 C-15.99 12.67 -16.98 12.34 -18 12 C-17.360625 11.401875 -16.72125 10.80375 -16.0625 10.1875 C-13.79689611 8.09189663 -13.79689611 8.09189663 -13 5 C-14.65 5.33 -16.3 5.66 -18 6 C-17.125 2.125 -17.125 2.125 -16 1 C-12.99668982 0.85806663 -10.00782866 0.95763622 -7 1 C-7.66 3.97 -8.32 6.94 -9 10 C-7.02 10 -5.04 10 -3 10 C-2.87625 8.906875 -2.7525 7.81375 -2.625 6.6875 C-2 3 -2 3 0 0 Z " fill="#EAF5FD" transform="translate(22,13)"/>
<path d="M0 0 C1.37163873 0.0265051 2.74300063 0.0740941 4.11328125 0.140625 C5.16612305 0.16769531 5.16612305 0.16769531 6.24023438 0.1953125 C7.96933561 0.24236287 9.6977333 0.31410627 11.42578125 0.390625 C11.42578125 1.380625 11.42578125 2.370625 11.42578125 3.390625 C8.78578125 3.390625 6.14578125 3.390625 3.42578125 3.390625 C2.76578125 9.660625 2.10578125 15.930625 1.42578125 22.390625 C0.10578125 22.390625 -1.21421875 22.390625 -2.57421875 22.390625 C-2.91115148 15.42734862 -1.87730745 9.95716956 0.42578125 3.390625 C-1.88421875 3.720625 -4.19421875 4.050625 -6.57421875 4.390625 C-4.77807489 0.89468215 -4.00056451 0.43722016 0 0 Z " fill="#F1F8FD" transform="translate(32.57421875,12.609375)"/>
</svg>
